<svg xmlns="http://www.w3.org/2000/svg" viewBox="0 0 311.51 98.11"><defs><style>.cls-1{fill:#fff;}.cls-2{fill:none;}.cls-3{fill:#fcfbf7;}</style></defs><g id="Layer_2" data-name="Layer 2"><g id="Layer_1-2" data-name="Layer 1"><path class="cls-1" d="M55.93,15.26H79.81a9.61,9.61,0,0,1,10,8.9,36.2,36.2,0,0,1,.27,4c0,14.51,0,29,0,43.54a10.8,10.8,0,0,1-10.83,10.9c-15.76-.11-31.53.14-47.29.22A10.41,10.41,0,0,1,22,72.9q0-24.11,0-48.21c0-4.83,4.62-9.41,9.51-9.42C39.61,15.24,47.77,15.26,55.93,15.26ZM35.77,42.91c1.57.76,3,1.35,4.34,2.15a3.81,3.81,0,0,0,3.67.14c3.64-1.46,7.25-3,10.91-4.36a4,4,0,0,1,2.52,0c3.92,1.43,7.77,3,11.7,4.44a4.11,4.11,0,0,0,2.79-.1c3.26-1.45,6.46-3.06,9.64-4.67.51-.25,1.27-.92,1.19-1.2a2.4,2.4,0,0,0-1.27-1.39C73.51,34.44,65.72,31.05,58,27.56a4.76,4.76,0,0,0-4.24,0C46.05,31,38.33,34.49,30.63,38c-.46.21-1.11.78-1.07,1.11a1.84,1.84,0,0,0,1,1.33c1.88.47,2.37,1.64,2.07,3.37a4.7,4.7,0,0,0,0,.75c0,3.56-.06,7.11-.07,10.66,0,1.15.34,2.11,1.75,2.08s1.47-.85,1.46-1.93C35.74,51.27,35.77,47.17,35.77,42.91ZM37.56,71.6c2.93,0,5.38,0,7.83,0a1.79,1.79,0,0,0,1.26-.78c1-1.93,1.8-3.93,2.7-5.93,4.14,0,8.25,0,12.35,0a1.59,1.59,0,0,1,1.69,1c.73,1.55,1.43,3.11,2.26,4.6a2,2,0,0,0,1.37.91c2.44.1,4.89.05,7.33.05,0-.09.06-.15,0-.19Q68.3,59.65,62.19,48.07a1.62,1.62,0,0,0-1-.63,14.26,14.26,0,0,0-2.87-.55c-1.65-.06-3.3,0-5,.1a8.43,8.43,0,0,0-1.88.37,3.33,3.33,0,0,0-2.47,2c-.22.38-.36.8-.57,1.2Z"/><path class="cls-2" d="M35.77,42.91c0,4.26,0,8.36,0,12.46,0,1.08-.18,1.91-1.46,1.93s-1.75-.93-1.75-2.08c0-3.55,0-7.1.07-10.66a4.7,4.7,0,0,1,0-.75c.3-1.73-.19-2.9-2.07-3.37a1.84,1.84,0,0,1-1-1.33c0-.33.61-.9,1.07-1.11,7.7-3.51,15.42-7,23.11-10.47a4.76,4.76,0,0,1,4.24,0c7.74,3.49,15.53,6.88,23.28,10.36a2.4,2.4,0,0,1,1.27,1.39c.08.28-.68.95-1.19,1.2-3.18,1.61-6.38,3.22-9.64,4.67a4.11,4.11,0,0,1-2.79.1c-3.93-1.4-7.78-3-11.7-4.44a4,4,0,0,0-2.52,0c-3.66,1.38-7.27,2.9-10.91,4.36a3.81,3.81,0,0,1-3.67-.14C38.79,44.26,37.34,43.67,35.77,42.91Z"/><path class="cls-2" d="M53.37,47c1.65-.08,3.3-.16,5-.1a14.26,14.26,0,0,1,2.87.55,1.62,1.62,0,0,1,1,.63q6.14,11.57,12.2,23.17s0,.1,0,.19c-2.44,0-4.89,0-7.33-.05a2,2,0,0,1-1.37-.91c-.83-1.49-1.53-3-2.26-4.6a1.59,1.59,0,0,0-1.69-1c-4.1.07-8.21,0-12.35,0-.9,2-1.74,4-2.7,5.93a1.79,1.79,0,0,1-1.26.78c-2.45.07-4.9,0-7.83,0l10.89-21c.21-.4.35-.82.57-1.2m3,9.07h8l-4-8.35C54.69,53,53.36,55.73,52,58.48Z"/><path class="cls-3" d="M52,58.48c1.33-2.75,2.66-5.47,4.07-8.35l4,8.35Z"/><path class="cls-1" d="M135.09,66.73h-7.9l-3.13-8.16H109.69l-3,8.16H99l14-35.94h7.67ZM121.73,52.51l-5-13.33-4.86,13.33Z"/><path class="cls-1" d="M161.59,48.39l-6.79,1.23a5,5,0,0,0-1.56-3.07,4.73,4.73,0,0,0-3.15-1A5.16,5.16,0,0,0,146,47.3q-1.53,1.79-1.53,6c0,3.08.52,5.27,1.56,6.54a5.1,5.1,0,0,0,4.18,1.91,4.68,4.68,0,0,0,3.21-1.11,6.72,6.72,0,0,0,1.76-3.84l6.77,1.15a12,12,0,0,1-4.05,7,12.53,12.53,0,0,1-8,2.38,11.91,11.91,0,0,1-9.11-3.61q-3.39-3.6-3.39-10t3.4-10A12.14,12.14,0,0,1,150,40.11a12.53,12.53,0,0,1,7.56,2A11.35,11.35,0,0,1,161.59,48.39Z"/><path class="cls-1" d="M172,48.64l-6.25-1.13a9.75,9.75,0,0,1,3.63-5.59q2.58-1.81,7.65-1.81a16.42,16.42,0,0,1,6.86,1.09A6.88,6.88,0,0,1,187,44q.91,1.68.92,6.16l-.08,8a28.1,28.1,0,0,0,.33,5.07,15,15,0,0,0,1.24,3.49h-6.81c-.18-.46-.4-1.14-.67-2-.11-.41-.19-.67-.24-.81a12.36,12.36,0,0,1-3.78,2.58,10.85,10.85,0,0,1-4.29.86,8.83,8.83,0,0,1-6.33-2.19A7.22,7.22,0,0,1,165,59.62a7.32,7.32,0,0,1,1.06-3.93A6.78,6.78,0,0,1,169,53a23.31,23.31,0,0,1,5.48-1.61,37.31,37.31,0,0,0,6.69-1.69v-.69a3.59,3.59,0,0,0-1-2.83c-.65-.56-1.89-.84-3.7-.84a5,5,0,0,0-2.87.72A5,5,0,0,0,172,48.64Zm9.22,5.59c-.88.29-2.28.64-4.19,1.05a12.78,12.78,0,0,0-3.75,1.2,2.88,2.88,0,0,0-1.35,2.43,3.38,3.38,0,0,0,1.08,2.5,3.76,3.76,0,0,0,2.74,1.05,6,6,0,0,0,3.56-1.22A4.31,4.31,0,0,0,180.9,59a13.61,13.61,0,0,0,.27-3.36Z"/><path class="cls-1" d="M218.6,66.73h-6.4V62.9a10.31,10.31,0,0,1-3.76,3.33,9.78,9.78,0,0,1-4.38,1.09,9.91,9.91,0,0,1-7.68-3.62q-3.19-3.62-3.2-10.09t3.11-10.06a10.18,10.18,0,0,1,7.87-3.44,9.74,9.74,0,0,1,7.55,3.63v-13h6.89ZM200.22,53.15q0,4.17,1.15,6A5.19,5.19,0,0,0,206,61.87a5.06,5.06,0,0,0,4-2q1.67-2,1.67-6,0-4.48-1.62-6.46a5.32,5.32,0,0,0-8.25,0Q200.22,49.28,200.22,53.15Z"/><path class="cls-1" d="M225.39,34h0a3.19,3.19,0,0,1,3.19-3.19h.51A3.19,3.19,0,0,1,232.28,34h0a3.19,3.19,0,0,1-3.19,3.19h-.51A3.19,3.19,0,0,1,225.39,34Zm0,32.75v-26h6.89v26Z"/><path class="cls-1" d="M246.49,66.73,236,40.7h7.23L248.14,54l1.42,4.44c.37-1.13.61-1.87.71-2.23.23-.74.47-1.47.73-2.21l5-13.28H263l-10.34,26Z"/><path class="cls-1" d="M282.33,58.44l6.86,1.16A11.19,11.19,0,0,1,285,65.34a12.22,12.22,0,0,1-7.14,2q-6.8,0-10.05-4.44a14.88,14.88,0,0,1-2.57-9c0-4.32,1.12-7.69,3.38-10.14a11.14,11.14,0,0,1,8.55-3.66,11.57,11.57,0,0,1,9.17,3.83q3.36,3.84,3.21,11.76H272.3A7,7,0,0,0,274,60.46a5.21,5.21,0,0,0,4,1.71,4.25,4.25,0,0,0,2.72-.88A5.47,5.47,0,0,0,282.33,58.44Zm.39-7a6.66,6.66,0,0,0-1.54-4.55,5,5,0,0,0-7.31.09,6.34,6.34,0,0,0-1.44,4.46Z"/><rect class="cls-2" width="311.51" height="98.11"/></g></g></svg>